<?xml version="1.0" standalone="no"?>
<!DOCTYPE svg PUBLIC "-//W3C//DTD SVG 20010904//EN"
 "http://www.w3.org/TR/2001/REC-SVG-20010904/DTD/svg10.dtd">
<svg version="1.0" xmlns="http://www.w3.org/2000/svg"
 width="512.000000pt" height="512.000000pt" viewBox="0 0 512.000000 512.000000"
 preserveAspectRatio="xMidYMid meet">

<g transform="translate(0.000000,512.000000) scale(0.100000,-0.100000)"
fill="#000000" stroke="none">
<path d="M345 4346 c-84 -21 -147 -57 -211 -121 -65 -65 -105 -136 -123 -223
-16 -76 -16 -2810 0 -2884 37 -171 177 -311 347 -347 75 -16 4329 -16 4404 0
170 36 311 178 347 347 16 76 16 2810 0 2884 -37 172 -176 311 -347 347 -81
17 -4349 14 -4417 -3z m3290 -1257 c-534 -533 -982 -977 -997 -985 -35 -18
-121 -18 -156 0 -15 8 -463 452 -997 985 l-970 971 2045 0 2045 0 -970 -971z
m-2688 -1176 l-647 -648 0 1295 0 1295 647 -648 648 -647 -648 -647z m3873
645 l0 -1293 -647 647 -648 648 645 645 c355 355 646 645 647 645 2 0 3 -582
3 -1292z m-2781 -451 c215 -213 243 -237 315 -273 l80 -39 125 0 c125 0 127 0
205 38 73 35 96 55 318 274 l239 237 642 -642 642 -642 -2045 0 -2045 0 640
640 c352 352 642 640 644 640 3 0 111 -105 240 -233z"/>
</g>
</svg>
